<svg xmlns="http://www.w3.org/2000/svg" viewBox="0 0 1024 1024" width="1024" height="1024" role="img" aria-label="Document with git branch icon">
  <title>Document Git Branch Icon</title>
  <g fill="none" stroke="#000" stroke-width="52" stroke-linecap="round" stroke-linejoin="round">
    <!-- Document outline -->
    <path d="M292 150H596L768 322V832C768 858 747 880 720 880H292C266 880 244 858 244 832V198C244 172 266 150 292 150Z"/>
    <!-- Folded corner -->
    <path d="M596 150V286C596 312 618 334 644 334H768"/>

    <!-- Git branch connectors -->
    <path d="M400 380V715"/>
    <path d="M400 570C470 570 500 562 532 524C552 500 566 462 610 462"/>

    <!-- Git nodes -->
    <circle cx="400" cy="330" r="42" fill="#fff"/>
    <circle cx="400" cy="570" r="42" fill="#fff"/>
    <circle cx="400" cy="760" r="42" fill="#fff"/>
    <circle cx="610" cy="462" r="42" fill="#fff"/>
  </g>
</svg>
